<?xml version="1.0" encoding="UTF-8"?>
<svg id="Layer_2" data-name="Layer 2" xmlns="http://www.w3.org/2000/svg" xmlns:xlink="http://www.w3.org/1999/xlink" viewBox="0 0 129.08 23.27">
  <defs>
    <style>
      .cls-1 {
        fill: #009ce0;
      }

      .cls-2 {
        fill: #595857;
      }

      .cls-3 {
        fill: url(#_무제_그라디언트_8);
      }
    </style>
    <linearGradient id="_무제_그라디언트_8" data-name="무제 그라디언트 8" x1="0" y1="11.64" x2="24.83" y2="11.64" gradientUnits="userSpaceOnUse">
      <stop offset="0" stop-color="#89c895"/>
      <stop offset="1" stop-color="#009ce0"/>
    </linearGradient>
  </defs>
  <g id="_레이어_1" data-name="레이어 1">
    <g>
      <path class="cls-3" d="M23.79,10.6c-1.68-1.68-3.22-.35-3.51-.06l-.05.05s-.01.01-.01.01h0s-7.56,7.56-7.56,7.56c-.02.02-.03.03-.05.04l-.07.07h0s0,0,0,0l-.04.04h0c-.34.31-.68.39-.98.36h0s-.06-.01-.09-.01c-.02,0-.03,0-.05,0-.7-.11-1.42-.99-1.42-.99l-5.02-5.02c-.93-.93,0-1.87,0-1.87l5.82-5.83s1.06-1.08,2.14,0l.4.4c.26.29.78,1.07-.12,1.98l-3.33,3.33-.06.06c-.22.23-.9,1.09.06,2.05l.78.78c.81.67,1.5.3,1.82.03l5.4-5.4c1.63-1.63.35-3.13.06-3.43l-.06-.06-3.59-3.59c-1.45-1.46-3.81-1.46-5.27,0L1.09,9c-1.45,1.46-1.45,3.82,0,5.27l7.91,7.91c1.46,1.46,3.82,1.46,5.27,0l6.95-6.95h0s3.6-3.59,3.6-3.59l-1.04-1.04Z"/>
      <path class="cls-1" d="M45.41,4.08s-.02-.41-.42-.41h-9.18s-5.75-.72-5.75,5.75v4.46s-.59,5.76,5.78,5.76h8.99s.56.05.56-.41v-2.34s.01-.42-.41-.42h-9.18s-2.65.4-2.65-2.6v-.9h11.67s.44.02.44-.42v-1.97s.03-.44-.44-.44h-11.67v-.74s-.34-2.57,2.65-2.57h9.18s.41-.01.41-.41v-2.35Z"/>
      <path class="cls-1" d="M63.11,4.08s0-.44-.44-.44h-9.34s-5.76-.36-5.76,5.82v4.41s-.23,5.77,5.76,5.77h9.31s.45-.04.45-.42v-2.33s.06-.42-.42-.42h-9.34s-2.6.21-2.6-2.58v-4.45s-.16-2.6,2.6-2.6h9.34s.43.02.43-.41v-2.35Z"/>
      <path class="cls-1" d="M65.27,4.08s0-.44.44-.44h2.31s.41,0,.41.44v6.02h9.66v-6.02s-.02-.44.44-.44h2.28s.44,0,.44.44v15.16s.02.41-.44.41h-2.26s-.46.04-.46-.41v-6.17h-9.66v6.16s.03.42-.41.42h-2.31s-.44,0-.44-.4V4.08Z"/>
      <path class="cls-1" d="M101.44,13.91v-4.5c0-6.22-5.77-5.77-5.77-5.77h-6.4c-6.31,0-5.77,5.77-5.77,5.77v4.5c0,6.24,5.77,5.74,5.77,5.74h6.43c6.13,0,5.75-5.74,5.75-5.74ZM95.69,16.47h-6.43s-2.61.14-2.61-2.57,0-4.5,0-4.5c0,0-.24-2.56,2.61-2.56h6.43s2.58-.15,2.58,2.56v4.5s.13,2.57-2.58,2.57Z"/>
      <path class="cls-2" d="M106.66,19.24V4.08s0-.42.45-.42h2.25s.46-.07.46.42v15.16s.02.41-.46.41h-2.25s-.45-.03-.45-.41Z"/>
      <path class="cls-2" d="M111.98,4.15s-.03-.49.46-.49h16.23s.41-.03.41.42v2.32s0,.45-.41.45h-6.55v12.4s.04.4-.42.4h-2.31s-.43.02-.43-.41V6.85h-6.52s-.46.03-.46-.45v-2.25Z"/>
    </g>
  </g>
</svg>